<?xml version="1.0" encoding="UTF-8" standalone="no"?>
<svg
   xmlns:dc="http://purl.org/dc/elements/1.1/"
   xmlns:cc="http://creativecommons.org/ns#"
   xmlns:rdf="http://www.w3.org/1999/02/22-rdf-syntax-ns#"
   xmlns:svg="http://www.w3.org/2000/svg"
   xmlns="http://www.w3.org/2000/svg"
   xmlns:xlink="http://www.w3.org/1999/xlink"
   id="svg8"
   version="1.1"
   viewBox="0 0 135.46666 135.46666"
   height="135.46666mm"
   width="135.46666mm">
  <defs
     id="defs2">
    <linearGradient
       id="linearGradient4559-4">
      <stop
         id="stop4555"
         offset="0"
         style="stop-color:#ffffff;stop-opacity:1" />
      <stop
         id="stop4557"
         offset="1"
         style="stop-color:#cdcdcd;stop-opacity:1" />
    </linearGradient>
    <linearGradient
       id="linearGradient4531">
      <stop
         id="stop4527"
         offset="0"
         style="stop-color:#e890ff;stop-opacity:1" />
      <stop
         id="stop4529"
         offset="1"
         style="stop-color:#500064;stop-opacity:1" />
    </linearGradient>
    <linearGradient
       gradientTransform="scale(3.7795275)"
       gradientUnits="userSpaceOnUse"
       y2="214.97916"
       x2="140.22916"
       y1="79.512497"
       x1="4.7624998"
       id="linearGradient4533"
       xlink:href="#linearGradient4531" />
    <linearGradient
       gradientUnits="userSpaceOnUse"
       y2="173.09961"
       x2="226.15063"
       y1="123.82914"
       x1="220.59918"
       id="linearGradient4561"
       xlink:href="#linearGradient4559-4" />
  </defs>
  <metadata
     id="metadata5">
    <rdf:RDF>
      <cc:Work
         rdf:about="">
        <dc:format>image/svg+xml</dc:format>
        <dc:type
           rdf:resource="http://purl.org/dc/dcmitype/StillImage" />
        <dc:title />
      </cc:Work>
    </rdf:RDF>
  </metadata>
  <g
     transform="translate(-31.493205,-288.95153)"
     id="layer1">
    <g
       transform="translate(26.730705,209.43907)"
       id="round">
      <title
         id="title4662">Round Icon</title>
      <path
         style="fill:url(#linearGradient4533);fill-opacity:1;stroke-width:1"
         d="M 103.33203,300.51953 A 85.333512,85.333515 0 0 0 18,385.85156 V 556.51953 727.1875 a 85.333512,85.333515 0 0 0 85.33203,85.33203 H 444.66797 A 85.333512,85.333515 0 0 0 530,727.1875 V 385.85156 a 85.333512,85.333515 0 0 0 -85.33203,-85.33203 z"
         transform="scale(0.26458333)"
         id="rect4524" />
      <path
         style="fill:url(#linearGradient4561);fill-opacity:1;fill-rule:evenodd;stroke-width:0.264583"
         id="path4537"
         d="m 265.70083,197.04667 -39.5502,-23.94706 -15.99084,43.38171 -5.93658,-45.85234 -43.88731,14.54591 32.1474,-33.22987 -38.73574,-25.24325 46.02373,4.41537 -4.41536,-46.023742 25.24325,38.735742 33.22987,-32.147403 -14.54591,43.887313 45.85234,5.93658 -43.38171,15.99084 z"
         transform="matrix(0.7411225,-0.46873605,0.47732539,0.7464499,-160.22218,141.37339)" />
    </g>
  </g>
</svg>
